<svg width="27" height="16" viewBox="0 0 27 16" fill="none" xmlns="http://www.w3.org/2000/svg">
<path d="M1.00049 7C0.448204 7 0.000488281 7.44772 0.000488281 8C0.000488281 8.55228 0.448204 9 1.00049 9L1.00049 7ZM26.7076 8.70711C27.0981 8.31658 27.0981 7.68342 26.7076 7.29289L20.3436 0.928932C19.9531 0.538408 19.3199 0.538408 18.9294 0.928932C18.5389 1.31946 18.5389 1.95262 18.9294 2.34315L24.5863 8L18.9294 13.6569C18.5389 14.0474 18.5389 14.6805 18.9294 15.0711C19.3199 15.4616 19.9531 15.4616 20.3436 15.0711L26.7076 8.70711ZM1.00049 9L26.0005 9V7L1.00049 7L1.00049 9Z" fill="#FCF8F3"/>
</svg>
